0
SECTION
2
HEADER
9
$ACADVER
1
AC1015
9
$INSUNITS
70
4
9
$INSBASE
10
0
20
0
30
0
0
ENDSEC
0
SECTION
2
TABLES
0
TABLE
2
LAYER
5
2
100
AcDbSymbolTable
70
1
0
LAYER
5
5
100
AcDbSymbolTableRecord
100
AcDbLayerTableRecord
2
0
70
0
62
7
6
CONTINUOUS
0
ENDTAB
0
TABLE
2
BLOCK_RECORD
5
3
100
AcDbSymbolTable
70
5
0
BLOCK_RECORD
5
10
100
AcDbSymbolTableRecord
100
AcDbBlockTableRecord
2
*Model_Space
0
BLOCK_RECORD
5
11
100
AcDbSymbolTableRecord
100
AcDbBlockTableRecord
2
*Paper_Space
0
BLOCK_RECORD
5
12
100
AcDbSymbolTableRecord
100
AcDbBlockTableRecord
2
LEAF
0
BLOCK_RECORD
5
13
100
AcDbSymbolTableRecord
100
AcDbBlockTableRecord
2
ASSEMBLY
0
BLOCK_RECORD
5
14
100
AcDbSymbolTableRecord
100
AcDbBlockTableRecord
2
SAME
0
ENDTAB
0
ENDSEC
0
SECTION
2
BLOCKS
0
BLOCK
5
21
330
10
100
AcDbEntity
8
0
100
AcDbBlockBegin
2
*Model_Space
70
0
10
0
20
0
30
0
3
*Model_Space
1

0
ENDBLK
5
22
330
10
100
AcDbEntity
8
0
100
AcDbBlockEnd
0
BLOCK
5
23
330
11
100
AcDbEntity
8
0
100
AcDbBlockBegin
2
*Paper_Space
70
0
10
0
20
0
30
0
3
*Paper_Space
1

0
ENDBLK
5
24
330
11
100
AcDbEntity
8
0
100
AcDbBlockEnd
0
BLOCK
5
25
330
12
100
AcDbEntity
8
0
100
AcDbBlockBegin
2
LEAF
70
0
10
0
20
0
30
0
3
LEAF
1

0
LINE
5
26
330
12
100
AcDbEntity
8
0
62
1
100
AcDbLine
10
0
20
0
30
0
11
0
21
20
31
0
0
ENDBLK
5
27
330
12
100
AcDbEntity
8
0
100
AcDbBlockEnd
0
BLOCK
5
28
330
13
100
AcDbEntity
8
0
100
AcDbBlockBegin
2
ASSEMBLY
70
0
10
0
20
0
30
0
3
ASSEMBLY
1

0
INSERT
5
29
330
13
100
AcDbEntity
8
0
100
AcDbBlockReference
2
LEAF
10
5
20
5
30
0
41
2
42
2
43
2
50
90
0
ENDBLK
5
2A
330
13
100
AcDbEntity
8
0
100
AcDbBlockEnd
0
BLOCK
5
2B
330
14
100
AcDbEntity
8
0
100
AcDbBlockBegin
2
SAME
70
0
10
0
20
0
30
0
3
SAME
1

0
CIRCLE
5
2C
330
14
100
AcDbEntity
8
0
62
5
100
AcDbCircle
10
2
20
2
30
0
40
3
0
ENDBLK
5
2D
330
14
100
AcDbEntity
8
0
100
AcDbBlockEnd
0
ENDSEC
0
SECTION
2
ENTITIES
0
INSERT
5
2E
330
10
100
AcDbEntity
8
0
100
AcDbBlockReference
2
ASSEMBLY
10
0
20
100
30
0
41
1
42
1
43
1
50
0
0
INSERT
5
2F
330
10
100
AcDbEntity
8
0
100
AcDbBlockReference
2
LEAF
10
50
20
50
30
0
41
0.5
42
0.5
43
0.5
50
180
0
INSERT
5
30
330
10
100
AcDbEntity
8
0
100
AcDbBlockReference
2
SAME
10
0
20
0
30
0
41
1
42
1
43
1
50
0
0
ENDSEC
0
EOF
